HIERARCHY
ROOT Hips
{
	OFFSET -3.958830 18.904000 13.208200
	CHANNELS 6 Xposition Yposition Zposition Zrotation Yrotation Xrotation 
	JOINT LHipJoint
	{
		OFFSET 0.000000 0.000000 0.000000
		CHANNELS 3 Zrotation Yrotation Xrotation
		JOINT LeftUpLeg
		{
			OFFSET 1.800000 -1.400000 0.085000
			CHANNELS 3 Zrotation Yrotation Xrotation
			JOINT LeftLeg
			{
				OFFSET 2.215000 -6.000000 0.000000
				CHANNELS 3 Zrotation Yrotation Xrotation
				JOINT LeftFoot
				{
					OFFSET 2.500000 -6.900000 0.000000
					CHANNELS 3 Zrotation Yrotation Xrotation
					JOINT LeftToeBase
					{
						OFFSET 0.200000 -0.500000 1.950000
						CHANNELS 3 Zrotation Yrotation Xrotation
						End Site
						{
							OFFSET 0.000000 0.000000 0.000000
						}
					}
				}
			}
		}
	}
	JOINT RHipJoint
	{
		OFFSET 0.000000 0.000000 0.000000
		CHANNELS 3 Zrotation Yrotation Xrotation
		JOINT RightUpLeg
		{
			OFFSET -1.800000 -1.400000 0.085000
			CHANNELS 3 Zrotation Yrotation Xrotation
			JOINT RightLeg
			{
				OFFSET -2.215000 -6.000000 0.000000
				CHANNELS 3 Zrotation Yrotation Xrotation
				JOINT RightFoot
				{
					OFFSET -2.500000 -6.900000 0.000000
					CHANNELS 3 Zrotation Yrotation Xrotation
					JOINT RightToeBase
					{
						OFFSET -0.200000 -0.500000 1.950000
						CHANNELS 3 Zrotation Yrotation Xrotation
						End Site
						{
							OFFSET 0.000000 0.000000 0.000000
						}
					}
				}
			}
		}
	}
	JOINT LowerBack
	{
		OFFSET 0.000000 0.000000 0.000000
		CHANNELS 3 Zrotation Yrotation Xrotation
		JOINT Spine
		{
			OFFSET -0.087000 1.940000 -0.288900
			CHANNELS 3 Zrotation Yrotation Xrotation
			JOINT Spine1
			{
				OFFSET 0.000000 1.950000 0.060000
				CHANNELS 3 Zrotation Yrotation Xrotation
				JOINT Neck
				{
					OFFSET 0.000000 0.000000 0.000000
					CHANNELS 3 Zrotation Yrotation Xrotation
					JOINT Neck1
					{
						OFFSET 0.000000 1.600000 0.340000
						CHANNELS 3 Zrotation Yrotation Xrotation
						JOINT Head
						{
							OFFSET 0.000000 1.667000 -0.240000
							CHANNELS 3 Zrotation Yrotation Xrotation
							End Site
							{
								OFFSET 0.000000 0.000000 0.000000
							}
						}
					}
				}
				JOINT LeftShoulder
				{
					OFFSET 0.000000 0.000000 0.000000
					CHANNELS 3 Zrotation Yrotation Xrotation
					JOINT LeftArm
					{
						OFFSET 2.700000 1.550000 -0.730000
						CHANNELS 3 Zrotation Yrotation Xrotation
						JOINT LeftForeArm
						{
							OFFSET 5.450000 0.000000 0.000000
							CHANNELS 3 Zrotation Yrotation Xrotation
							JOINT LeftHand
							{
								OFFSET 3.450000 0.000000 0.000000
								CHANNELS 3 Zrotation Yrotation Xrotation
								JOINT LeftHandIndex1
								{
									OFFSET 0.750000 0.000000 0.000000
									CHANNELS 3 Zrotation Yrotation Xrotation
									End Site
									{
										OFFSET 0.000000 0.000000 0.000000
									}
								}
							}
						}
					}
				}
				JOINT RightShoulder
				{
					OFFSET 0.000000 0.000000 0.000000
					CHANNELS 3 Zrotation Yrotation Xrotation
					JOINT RightArm
					{
						OFFSET -2.700000 1.550000 -0.730000
						CHANNELS 3 Zrotation Yrotation Xrotation
						JOINT RightForeArm
						{
							OFFSET -5.450000 0.000000 0.000000
							CHANNELS 3 Zrotation Yrotation Xrotation
							JOINT RightHand
							{
								OFFSET -3.450000 0.000000 0.000000
								CHANNELS 3 Zrotation Yrotation Xrotation
								JOINT RightHandIndex1
								{
									OFFSET -0.750000 0.000000 0.000000
									CHANNELS 3 Zrotation Yrotation Xrotation
									End Site
									{
										OFFSET 0.000000 0.000000 0.000000
									}
								}
							}
						}
					}
				}
			}
		}
	}
}
MOTION
Frames: 13
Frame Time: 0.016667
-0.445870 17.066980 -2.900340 -4.906973 -15.936159 2.280229 -15.880933 11.856758 4.353570 6.358137 -7.289095 -42.650573 2.262912 11.266394 58.994115 -0.052052 10.490397 0.508626 0.653410 0.816770 0.502670 18.159104 -7.598037 4.443964 9.789920 15.356337 -35.866036 -9.921437 -1.775284 64.003797 -1.793002 -8.724890 0.952489 0.617650 0.113610 0.360880 -2.497076 -4.349356 -8.960022 -1.879230 6.408158 39.081018 11.692609 5.308173 22.441768 -7.853601 0.842761 -9.654906 -0.897302 -2.090556 28.255392 -5.178140 2.019830 -39.034050 7.508471 -36.710408 -4.367446 17.576607 -38.312324 -19.839029 93.148365 -25.476253 -33.950655 -4.128422 2.531066 0.790520 -0.050440 0.529780 0.101370 6.386687 39.922627 11.462211 20.179064 26.452967 -24.313701 -88.526773 37.800064 -46.165900 2.087413 -1.153915 -0.237530 0.591860 0.059790 -0.082390 
-0.427440 17.016390 -2.915060 -4.836571 -15.599566 1.522619 -15.859426 11.870944 4.333029 5.784893 -7.435720 -42.290082 2.832535 10.987294 59.607705 0.050747 10.562963 0.544429 0.551070 0.712400 0.405300 18.167853 -7.672720 4.422575 9.096177 15.326828 -35.798413 -9.157698 -2.494055 64.875342 -1.791177 -8.896733 0.956115 0.536060 0.203970 0.352780 -2.531712 -4.235519 -8.962622 -0.836693 6.415802 40.700799 11.394855 5.478297 21.174870 -7.226432 1.418408 -9.461463 -0.048273 -2.631582 29.032333 -3.894890 1.634320 -37.436550 7.847561 -35.856489 -4.128066 21.351877 -37.343340 -20.631212 88.891730 -25.321363 -30.800099 -4.182025 2.529323 0.751300 -0.011830 0.484400 0.111900 4.997867 38.871841 10.890775 19.324683 26.194585 -23.759935 -86.732448 37.688717 -44.628115 2.093250 -1.114908 -0.247110 0.622580 0.104730 -0.041310 
-0.400520 16.920780 -2.946660 -4.034525 -14.840795 -0.672716 -15.837937 11.990135 4.293598 4.258856 -7.829312 -40.942239 3.757717 10.797943 61.779038 0.294503 10.846784 0.491171 0.445870 0.665530 0.234160 18.151530 -7.858495 4.246316 6.135483 14.946105 -35.083335 -5.833981 -5.244949 66.865131 -1.817112 -9.431132 0.845401 0.466740 0.305180 0.363560 -2.517982 -4.151260 -8.904959 0.061818 6.910735 43.994516 11.358272 5.779793 19.384877 -6.261887 3.072026 -8.798781 2.628224 -3.143885 30.471335 -1.586330 1.427460 -32.695600 9.039366 -32.957488 -3.658217 30.423063 -31.876985 -21.583487 76.035365 -25.360623 -23.278799 -4.266212 2.700904 0.615250 0.062820 0.416350 0.128350 2.226237 35.649250 9.148430 14.620536 24.863687 -21.932783 -77.877328 37.971033 -38.073376 2.103843 -1.153016 -0.187510 0.586370 0.155090 0.052100 
-0.380000 16.865660 -2.932250 -3.325967 -15.453859 -2.198775 -15.744070 11.694511 4.357412 4.854479 -8.056853 -40.268612 0.921939 13.057716 63.407738 0.424734 11.522189 0.222490 0.582340 0.803100 0.295140 18.233793 -8.112598 4.121656 2.969130 14.831388 -35.090466 -2.677452 -7.975163 68.482571 -1.911062 -10.046457 0.577285 0.573860 0.283660 0.448030 -2.797974 -3.308766 -8.865390 2.382227 6.313648 45.896045 8.459299 6.113171 18.558351 -4.326273 5.041890 -7.663679 6.682932 -3.942231 28.816060 -0.299660 1.101080 -29.274850 8.599675 -29.324156 -3.968253 36.869643 -28.108017 -20.585881 61.720315 -25.406414 -17.037689 -4.203833 2.932686 0.536130 0.102250 0.403160 0.138920 -0.822753 31.264150 7.292903 10.466888 24.263100 -19.209358 -66.433975 41.533468 -32.516458 1.973099 -1.237592 -0.106310 0.475910 0.116640 0.062860 
-0.323770 16.875520 -2.930620 -3.581946 -17.604888 -2.892850 -15.746985 11.409492 4.510675 7.411773 -8.119859 -40.213326 -3.801106 16.328059 63.480670 0.704696 12.190458 0.085955 0.587690 0.846150 0.199270 18.253309 -8.015440 4.143682 0.906448 15.130199 -36.422768 -0.138365 -10.477703 70.239236 -1.983630 -10.664664 0.425720 0.605130 0.358360 0.392870 -2.874903 -3.044124 -8.997998 4.230866 5.617807 48.413719 7.566852 6.391025 16.183779 -3.041804 5.057972 -6.683812 6.986148 -5.875953 28.492841 2.230710 -1.731840 -24.750220 8.852933 -24.532103 -4.350378 37.560161 -26.113780 -17.365905 46.335170 -25.238131 -11.289172 -4.084106 3.048678 0.403110 0.120610 0.323680 0.221800 -3.327430 27.223135 5.630783 4.303752 21.782923 -17.325583 -53.347700 50.509873 -27.326976 1.808154 -1.152090 -0.083040 0.481730 0.065270 0.159440 
-0.274690 16.951740 -2.896270 -4.141123 -19.140602 -3.515423 -15.750650 11.264474 4.733473 10.960570 -8.341927 -39.410510 -9.075327 19.337798 62.083412 0.992206 12.680996 0.006275 0.410320 0.592210 0.107130 18.238965 -7.886877 4.132218 -2.136252 14.743296 -37.614775 4.092601 -14.467622 70.596366 -2.065143 -11.197298 0.312545 0.389070 0.340370 0.330720 -2.880089 -3.118672 -9.232319 6.733060 3.788674 51.656084 5.928099 6.137767 12.434938 -1.587762 4.096082 -7.063767 4.757629 -7.482064 32.758573 4.685010 -4.643850 -23.745160 8.492625 -22.703427 -2.440703 35.930688 -22.855016 -13.168311 30.725118 -23.690644 -5.793859 -3.923781 2.993211 0.446200 0.031170 0.299700 0.173010 -5.778346 25.388065 4.122237 -1.242452 17.253192 -17.801942 -37.121574 65.531286 -22.345410 1.741376 -1.018757 -0.093390 0.442860 0.110500 0.170530 
-0.245020 17.052750 -2.843750 -3.692065 -20.010977 -2.567826 -15.662787 10.774187 4.996018 13.574837 -8.915008 -39.812871 -13.981500 21.672869 59.779362 1.232460 12.932829 0.000237 0.265420 0.367170 0.044240 18.332668 -7.828365 4.297981 -7.600019 13.931884 -41.340429 9.538138 -19.005747 69.690063 -2.163865 -11.764172 0.175490 0.184960 0.306830 0.283230 -3.216984 -2.490074 -9.511406 10.094397 1.323814 50.822993 2.841916 4.978157 10.839705 -0.604338 3.481396 -8.928507 2.807749 -8.195741 39.188197 8.114590 -7.565550 -22.766800 9.133770 -22.451645 0.589916 28.624391 -20.317312 -8.371370 19.436622 -21.066340 -2.563563 -3.725617 2.896995 0.510540 -0.067430 0.305960 0.139330 -8.242995 23.978941 3.843466 -1.628023 14.308271 -17.206633 -18.835451 77.233903 -15.148909 1.857687 -1.258861 -0.094130 0.400330 0.132310 0.178000 
-0.201520 17.178550 -2.755040 -4.598683 -21.205740 0.146345 -15.669011 10.275274 5.338779 17.868264 -8.236215 -41.396516 -19.136905 24.114703 56.625895 1.410273 13.101743 -0.026498 0.115510 0.113980 0.090260 18.374018 -7.504302 4.580352 -12.516180 13.472315 -44.911327 16.457386 -22.850437 65.247382 -2.204946 -11.800690 0.178582 -0.056810 0.160760 0.242500 -3.367846 -2.199342 -9.897006 13.740373 -0.640897 48.439245 0.276956 4.697607 8.778794 1.309462 4.711405 -12.511456 4.074517 -9.855753 47.639105 8.314250 -9.413460 -22.549670 5.045284 -23.322635 4.825259 18.800415 -17.020177 -4.800123 15.449990 -16.541242 -1.575774 -3.591664 2.678661 0.649530 -0.199610 0.384900 0.044850 -7.934607 22.867030 5.763131 -4.213987 10.586299 -12.947513 34.332172 87.725863 27.186755 2.169954 -1.759771 -0.098590 0.317880 0.134830 0.108500 
-0.190850 17.312220 -2.664990 -4.733996 -22.465814 1.228280 -15.587018 9.787261 5.432594 21.078989 -7.132310 -40.724193 -22.754810 25.607238 53.669075 1.422853 13.137857 -0.037155 0.041150 -0.026010 0.164580 18.470917 -7.572499 4.776037 -17.556797 12.453425 -46.060201 23.328267 -25.375275 59.555067 -2.186272 -11.605563 0.212321 -0.161320 0.077320 0.231020 -3.717224 -1.196065 -10.050049 17.543603 -1.925641 47.280194 -3.623013 5.025707 6.102550 2.857995 8.129631 -13.810796 11.825447 -13.798753 48.915324 7.142180 -9.680480 -23.172700 0.391039 -25.356545 8.250110 14.529067 -14.175604 -2.662525 10.623862 -11.475721 -0.745136 -3.600623 2.509503 0.749640 -0.247170 0.432020 -0.024920 -6.423080 21.909266 3.816742 -2.606984 7.729719 -14.685949 117.390777 75.450808 98.027181 2.612891 1.263498 -0.138310 0.284630 0.139100 0.030010 
-0.179030 17.445680 -2.577670 -5.192938 -24.651815 1.403016 -15.438769 9.461259 5.355060 24.420212 -5.615857 -37.497963 -26.066470 26.429849 49.999370 1.338381 13.070853 -0.055336 0.043670 -0.013750 0.125850 18.612512 -7.863139 4.811331 -20.862788 11.420213 -45.066914 29.114469 -25.336745 52.029313 -1.971218 -10.930727 0.338927 -0.104850 0.142620 0.273490 -4.264681 -0.054936 -9.943113 21.529734 -3.965280 44.797370 -7.567579 3.821251 9.304776 3.793261 9.334283 -13.560070 15.267678 -14.767914 43.370417 6.893280 -10.178940 -22.482270 -1.514548 -24.333038 8.981368 12.224475 -14.248635 -0.598889 4.128131 0.322154 -0.807099 -3.922636 2.421673 0.673470 -0.169790 0.362140 -0.038280 -6.536254 19.311933 4.446366 0.713309 9.164193 -13.090208 141.851974 71.946182 121.877740 2.182031 -0.791769 -0.139020 0.273180 0.193190 0.041890 
-0.170390 17.560250 -2.463730 -5.282204 -26.886464 1.077531 -15.288859 9.356637 5.107957 26.399616 -4.440010 -33.268995 -26.844026 26.702943 48.377339 1.341313 12.976637 -0.032299 0.054140 0.034920 0.045310 18.728915 -8.223371 4.849354 -23.933349 10.313205 -43.648159 33.316159 -24.201438 45.311358 -1.777494 -10.217299 0.532919 -0.074830 0.199590 0.319690 -4.764863 0.920669 -9.773987 25.072155 -6.066189 42.819515 -11.249234 2.390579 12.044743 4.498954 9.656628 -13.305174 16.306776 -15.286397 38.679060 7.925800 -11.072640 -23.403390 -3.943118 -22.637649 9.252616 7.582377 -12.046966 0.162504 1.727555 6.836676 -1.232656 -4.071742 2.502303 0.607470 -0.117320 0.332420 0.000450 -5.409565 16.716196 5.787263 6.468937 10.150970 -11.251277 160.897441 66.799490 139.327202 2.125011 -1.363882 -0.101530 0.252960 0.204820 0.094120 
-0.174760 17.650820 -2.349120 -5.403475 -29.428458 2.149388 -15.237578 9.411761 4.927056 28.070252 -3.693629 -30.614534 -25.351170 26.742082 48.783020 1.329688 12.999595 -0.050104 0.012880 -0.065250 0.076580 18.761073 -8.403377 4.884425 -25.875957 9.160604 -43.340333 35.241893 -21.279457 38.073115 -1.477287 -9.117927 0.812314 -0.136550 0.162130 0.356330 -4.968990 1.328525 -9.666593 26.069367 -6.750388 39.503671 -12.923635 1.256604 13.169411 4.854386 10.875953 -14.428476 19.440982 -16.595438 36.878458 4.321450 -10.793100 -20.995230 -7.303425 -22.048173 10.239643 2.106489 -6.831409 0.636107 -0.635106 9.736780 -1.539465 -4.073422 2.592151 0.605510 -0.100990 0.316610 -0.036350 -2.984325 15.052636 7.826837 12.601993 10.324182 -7.894466 173.599321 59.317225 152.227123 2.214829 -1.577160 -0.100520 0.166380 0.215590 0.052530 
-0.196500 17.720360 -2.230540 -5.022828 -31.884782 2.475630 -15.134094 9.766816 4.371091 27.531287 -2.918935 -26.786923 -20.650666 24.979756 49.694368 1.212988 12.615498 0.059717 -0.049570 -0.168930 0.111110 18.789848 -8.779404 4.978804 -27.819690 8.372415 -42.401596 35.502495 -18.050560 31.995508 -1.209901 -8.087813 1.105468 -0.203910 0.135940 0.343840 -5.174572 1.748774 -9.399709 26.588853 -6.655037 36.860935 -13.847549 0.770240 14.430431 4.589826 12.190937 -15.493755 23.133874 -18.323147 34.429241 2.787930 -10.419690 -20.683830 -9.845991 -20.836064 10.573681 -5.458901 -1.916859 0.261147 -2.406874 13.932612 -1.920108 -4.086325 2.586596 0.633680 -0.107710 0.314300 -0.080450 -0.138561 12.712008 10.218329 22.987261 8.115306 -4.890335 -179.541882 52.322788 159.431478 2.349206 -1.576987 -0.131590 0.147380 0.225930 0.009190 
